<svg xmlns="http://www.w3.org/2000/svg" viewBox="0 0 28 28"><path d="M0 23.5V11.1q.69.76 1.58 1.35 5.65 3.85 7.76 5.4.9.65 1.45 1.02t1.48.75 1.72.38h.03q.8 0 1.72-.38t1.47-.75 1.45-1.03q2.65-1.92 7.78-5.39.89-.6 1.56-1.36V23.5q0 1.03-.73 1.77T25.5 26h-23q-1.03 0-1.77-.73T0 23.5zM0 6.84q0-1.21.65-2.03t1.85-.8h23q1.02 0 1.76.73T28 6.5q0 1.24-.77 2.36t-1.9 1.92l-7.31 5.08q-.16.1-.67.48t-.84.6-.82.5-.9.42-.77.14h-.03q-.36 0-.79-.14t-.9-.42-.8-.5-.85-.6-.66-.48l-4.1-2.85-3.2-2.23q-.97-.66-1.83-1.8T0 6.84z"/></svg>
