<svg xmlns="http://www.w3.org/2000/svg" viewBox="0 0 56.69 56.69"><path d="M19.67 25.79v5.38c3.01.1 6.02.05 9.03.1-1.32 6.66-10.4 8.83-15.2 4.47-4.93-3.82-4.7-12.2.43-15.75 3.59-2.86 8.7-2.15 12.28.33 1.4-1.3 2.73-2.7 4-4.15-2.99-2.38-6.65-4.08-10.54-3.9-8.13-.27-15.6 6.86-15.74 14.99-.52 6.64 3.85 13.16 10.02 15.51 6.15 2.37 14.03.75 17.96-4.77 2.59-3.49 3.15-7.98 2.84-12.2-5.03-.04-10.06-.03-15.08-.01zm29.4-.03l-.03-4.5h-4.48l-.04 4.5-4.5.03v4.49l4.5.04.03 4.5h4.49l.03-4.5 4.5-.04v-4.49l-4.5-.03z"/></svg>
