<svg xmlns="http://www.w3.org/2000/svg" viewBox="0 0 56.69 56.69"><path d="M30.07 27.1v-.08a2.03 2.03 0 0 1-.05.08h.05z"/><path d="M49.27 4.67H7.13A3.6 3.6 0 0 0 3.5 8.23v42.61a3.6 3.6 0 0 0 3.65 3.56h42.12c2.02 0 3.66-1.6 3.66-3.56V8.23a3.6 3.6 0 0 0-3.66-3.56zM18.46 46.3h-7.46V23.85h7.46V46.3zm-3.73-25.52h-.05c-2.5 0-4.12-1.73-4.12-3.88 0-2.2 1.67-3.88 4.22-3.88 2.56 0 4.13 1.67 4.18 3.88 0 2.15-1.62 3.88-4.23 3.88zM45.4 46.3h-7.46V34.3c0-3.02-1.08-5.08-3.78-5.08-2.06 0-3.3 1.39-3.83 2.73-.2.48-.25 1.15-.25 1.82V46.3h-7.46s.1-20.35 0-22.46h7.46v3.18c1-1.53 2.77-3.7 6.73-3.7 4.91 0 8.6 3.2 8.6 10.1V46.3z"/></svg>
