<svg version="1.1" xmlns="http://www.w3.org/2000/svg" width="64" height="32" viewBox="0 0 64 32">
<path d="M51.57 13.556c0 2.505 0 5.010 0 7.515 0 0.589-0.070 0.641-0.641 0.641h-2.108c-0.545 0-0.602-0.058-0.602-0.589 0-2.434 0-4.862 0-7.297-0.006-0.434-0.052-0.854-0.136-1.26l0.007 0.043c-0.084-0.534-0.516-0.945-1.052-0.999l-0.005-0c-0.159-0.023-0.343-0.035-0.53-0.035-0.863 0-1.662 0.275-2.314 0.742l0.012-0.008c-0.115 0.070-0.16 0.327-0.16 0.493 0 2.044 0 4.094 0 6.137 0 0.769 0 1.538 0 2.306 0 0.352-0.147 0.487-0.493 0.487-0.769 0-1.538 0-2.306 0-0.448 0-0.57-0.128-0.57-0.583q0-5.804 0-11.608c0-0.41 0.122-0.538 0.532-0.538h2.088c0.442 0 0.513 0.083 0.525 0.519 0 0.167 0 0.333 0 0.602l0.493-0.314c0.911-0.619 2.034-0.989 3.245-0.989 0.423 0 0.836 0.045 1.233 0.131l-0.038-0.007c1.314 0.21 2.334 1.244 2.522 2.546l0.002 0.016c0.16 0.606 0.265 1.308 0.294 2.031l0.001 0.019zM30.276 12.71c0.077 2.838 0.058 5.676 0.077 8.514 0 0.378-0.135 0.5-0.525 0.506h-2.005c-0.57 0-0.641-0.070-0.641-0.641 0-0.064 0-0.122 0-0.237-0.384 0.211-0.705 0.416-1.044 0.583-0.634 0.314-1.381 0.498-2.171 0.498-0.541 0-1.061-0.086-1.548-0.245l0.035 0.010c-1.066-0.295-1.875-1.155-2.092-2.23l-0.003-0.019c-0.104-0.405-0.163-0.869-0.163-1.348 0-0.396 0.041-0.782 0.118-1.155l-0.006 0.037c0.241-1.17 1.141-2.078 2.287-2.328l0.020-0.004c0.897-0.248 1.927-0.39 2.99-0.39 0.19 0 0.379 0.005 0.567 0.014l-0.026-0.001c0.852 0 0.852 0 0.852-0.858 0.009-0.096 0.014-0.208 0.014-0.32s-0.005-0.224-0.015-0.335l0.001 0.014c-0.078-0.64-0.618-1.131-1.272-1.131-0.032 0-0.065 0.001-0.096 0.004l0.004-0c-1.281 0-2.563 0.058-3.844 0.128-0.641 0.038-0.711 0-0.711-0.641 0-0.448 0-0.897 0-1.339-0.003-0.020-0.005-0.042-0.005-0.065 0-0.199 0.142-0.365 0.329-0.402l0.003-0c1.999-0.423 4.004-0.717 6.028-0.218 1.638 0.36 2.845 1.799 2.845 3.52 0 0.028-0 0.056-0.001 0.084l0-0.004zM27.009 18.476c-0.007-0.134-0.011-0.291-0.011-0.448s0.004-0.315 0.012-0.47l-0.001 0.022c0-0.384 0-0.769 0-1.153 0-0.096-0.141-0.263-0.205-0.263-0.775 0-1.557 0.051-2.325 0.141-0.467 0.060-0.836 0.416-0.915 0.871l-0.001 0.006c-0.059 0.288-0.093 0.618-0.093 0.956 0 0.141 0.006 0.282 0.018 0.42l-0.001-0.018c0.045 0.456 0.403 0.817 0.854 0.864l0.004 0c0.179 0.027 0.385 0.043 0.594 0.043 0.598 0 1.167-0.127 1.681-0.354l-0.026 0.010c0.246-0.053 0.427-0.269 0.427-0.527 0-0.038-0.004-0.075-0.011-0.111l0.001 0.003zM63.422 13.415q0 3.844 0 7.745c0 0.512-0.064 0.57-0.583 0.57h-1.922c-0.557 0-0.589-0.032-0.641-0.57 0.002-0.028 0.004-0.060 0.004-0.093s-0.001-0.065-0.004-0.097l0 0.004s0-0.038-0.064-0.096c-0.082 0.031-0.151 0.065-0.217 0.106l0.006-0.003c-0.814 0.578-1.819 0.939-2.905 0.98l-0.010 0c-0.129 0.018-0.278 0.028-0.429 0.028-1.843 0-3.34-1.486-3.357-3.325v-0.002c-0.018-0.201-0.029-0.435-0.029-0.671 0-0.305 0.017-0.607 0.051-0.903l-0.003 0.036c0.146-1.156 0.985-2.081 2.082-2.354l0.019-0.004c0.769-0.202 1.687-0.362 2.627-0.45l0.070-0.005c0.24-0.017 0.519-0.027 0.801-0.027s0.561 0.010 0.838 0.029l-0.037-0.002c0.237 0 0.352-0.070 0.34-0.32 0-0.035 0.001-0.076 0.001-0.117 0-0.351-0.019-0.699-0.056-1.040l0.004 0.042c-0.021-0.692-0.586-1.244-1.281-1.244-0.050 0-0.099 0.003-0.147 0.008l0.006-0.001c-1.281 0-2.563 0.064-3.844 0.135-0.641 0.032-0.73 0-0.73-0.673 0-0.41 0-0.82 0-1.23-0.002-0.016-0.003-0.035-0.003-0.054 0-0.267 0.202-0.487 0.462-0.516l0.002-0c1.116-0.281 2.397-0.441 3.715-0.441 0.27 0 0.539 0.007 0.806 0.020l-0.038-0.002c0.69 0.052 1.331 0.189 1.936 0.4l-0.053-0.016c1.34 0.425 2.321 1.593 2.465 3.009l0.001 0.015c0.062 0.331 0.103 0.72 0.115 1.116l0 0.012zM60.142 18.591c0-0.34 0-0.641 0-1.006s0-0.718 0-1.076c0-0.243-0.077-0.372-0.346-0.359-0.468 0-0.948 0-1.416 0-1.563 0.115-1.851 0.698-1.871 1.986-0.010 0.055-0.015 0.118-0.015 0.183 0 0.561 0.417 1.025 0.958 1.098l0.006 0.001c0.175 0.026 0.378 0.041 0.584 0.041 0.655 0 1.274-0.152 1.824-0.424l-0.024 0.011c0.174-0.057 0.298-0.218 0.298-0.409 0-0.019-0.001-0.037-0.003-0.055l0 0.002zM17.861 4.6h-2.191c-0.538 0-0.589 0.058-0.589 0.602v16.016c0 0.448 0.077 0.519 0.519 0.525h2.12c0.641 0 0.724-0.058 0.724-0.718v-13.6c0-0.743 0-1.486 0-2.236 0-0.5-0.096-0.589-0.615-0.589zM38.822 8.841c-0.992 0.037-1.898 0.372-2.64 0.919l0.013-0.009-0.372 0.263c0-0.179 0-0.282 0-0.391 0-0.532-0.102-0.641-0.641-0.641h-2.024c-0.641 0-0.718 0.102-0.718 0.711v5.125q0 3.113 0 6.214c0 0.551 0.122 0.641 0.641 0.641h2.153c0.57 0 0.641-0.083 0.641-0.673q0-4.126 0-8.264c-0.002-0.018-0.004-0.040-0.004-0.061 0-0.219 0.135-0.406 0.327-0.482l0.004-0.001c0.751-0.404 1.642-0.641 2.59-0.641 0.006 0 0.012 0 0.019 0h-0.001c0.34 0 0.506-0.115 0.5-0.474 0-0.641 0-1.217 0-1.826-0.006-0.282-0.154-0.455-0.487-0.41zM3.684 4.6c-0.641 0-1.313 0-1.973 0-0.027-0.003-0.058-0.004-0.090-0.004-0.545 0-0.987 0.442-0.987 0.987 0 0.040 0.002 0.079 0.007 0.118l-0-0.005v15.452c0 0.455 0.064 0.512 0.519 0.512h2.005c0.039 0.006 0.085 0.009 0.131 0.009 0.517 0 0.935-0.419 0.935-0.935 0-0.046-0.003-0.092-0.010-0.136l0.001 0.005v-15.445c0-0.448-0.096-0.551-0.538-0.557zM11.083 16.279c-1.306-1.39-3.092-2.317-5.091-2.515l-0.034-0.003c-0.641 0-0.641 0-0.641 0.461 0.013 0.193 0.036 0.369 0.069 0.541l-0.004-0.029c0.558 3.758 3.614 6.654 7.402 6.962l0.029 0.002c0.448 0.045 0.519 0 0.48-0.423-0.154-1.948-0.967-3.681-2.214-5.001l0.004 0.004zM12.813 4.645c-0.173 0-0.346 0-0.519 0.045-3.744 0.572-6.627 3.615-6.949 7.388l-0.002 0.030c-0.038 0.474 0 0.474 0.48 0.538 0.81-0.156 1.495-0.336 2.161-0.554l-0.124 0.035c3.248-1.236 5.029-3.632 5.439-7.047 0.058-0.455-0.019-0.506-0.487-0.436z"></path>
</svg>
