<svg xmlns="http://www.w3.org/2000/svg" viewBox="-91 49.217 56.693 56.693"><path d="M-60.453 73.611l3.345 1.558 4.985-1.487v-3.46c-.176-5.888-4.989-10.611-10.92-10.611-5.91 0-10.71 4.688-10.92 10.546v15.806a2.59 2.59 0 0 1-5.182 0v-6.698h-8.375v6.788c0 6.044 4.9 10.942 10.943 10.942 5.991 0 10.846-4.815 10.931-10.785l.012-15.612a2.59 2.59 0 1 1 5.181 0v3.013z"/><path d="M-46.941 79.264v7.012a2.59 2.59 0 1 1-5.181 0v-6.878l-4.986 1.488-3.344-1.557v6.821c.052 5.998 4.932 10.845 10.943 10.845 6.043 0 10.943-4.899 10.943-10.943v-6.788h-8.375z"/></svg>
