<svg xmlns="http://www.w3.org/2000/svg" viewBox="0 0 56.693 56.693"><path d="M30.507 5.188v11.381h11.379v8.788H30.507v12.619c0 2.855-.035 4.502.266 5.311.301.805 1.055 1.641 1.875 2.123 1.092.654 2.332.98 3.734.98 2.492 0 4.971-.809 7.436-2.428v7.76c-2.1.99-4.006 1.688-5.711 2.084-1.707.396-3.549.6-5.531.6-2.25 0-3.578-.285-5.305-.85-1.73-.572-3.205-1.385-4.424-2.43-1.225-1.053-2.068-2.172-2.54-3.355-.473-1.186-.709-2.904-.709-5.154v-17.26h-6.686v-6.971c1.933-.627 4.174-1.527 5.55-2.699a13.469 13.469 0 0 0 3.32-4.227c.838-1.641 1.412-3.734 1.727-6.271h6.998z"/></svg>
