<svg xmlns="http://www.w3.org/2000/svg" viewBox="0 0 56.69 56.69"><path d="M43.91 28.21H12.78a8.96 8.96 0 0 0-8.96 8.96v7.2a8.96 8.96 0 0 0 8.96 8.96h31.13a8.96 8.96 0 0 0 8.96-8.96v-7.2a8.96 8.96 0 0 0-8.96-8.96zm-24.59 5.6h-2.9V48.2h-2.79V33.82h-2.89v-2.45h8.58v2.45zM27.5 48.2h-2.48v-1.36c-.46.5-.94.88-1.43 1.14-.5.27-.98.4-1.45.4-.57 0-1-.18-1.3-.56-.28-.37-.43-.92-.43-1.66V35.78h2.48v9.52c0 .3.06.51.16.64.1.14.27.2.5.2.19 0 .42-.09.7-.26a3.35 3.35 0 0 0 .77-.67v-9.43h2.48V48.2zm9-2.57c0 .88-.2 1.55-.58 2.02-.39.47-.96.7-1.69.7-.49 0-.92-.08-1.3-.26a3.19 3.19 0 0 1-1.06-.85v.95h-2.5V31.38h2.5v5.42c.34-.38.7-.67 1.06-.86.38-.2.76-.3 1.15-.3.78 0 1.38.27 1.8.8.41.52.62 1.3.62 2.31v6.9zm8.6-3.34h-4.74v2.34c0 .65.08 1.1.24 1.36.17.25.45.37.84.37.41 0 .7-.1.87-.32.15-.21.24-.68.24-1.41v-.57h2.55v.64c0 1.27-.3 2.23-.93 2.88-.62.64-1.55.96-2.79.96a3.42 3.42 0 0 1-2.62-1.02 3.96 3.96 0 0 1-.96-2.82v-5.58a3.5 3.5 0 0 1 1.06-2.63c.7-.68 1.6-1.01 2.71-1.01 1.14 0 2.01.3 2.62.94.6.63.91 1.53.91 2.7v3.17z"/><path d="M41.47 37.65c-.4 0-.68.1-.85.34-.18.22-.26.59-.26 1.11v1.26h2.2V39.1c0-.52-.1-.9-.27-1.11-.17-.23-.45-.34-.82-.34zm-8.56-.05c-.18 0-.35.04-.53.12-.17.08-.34.21-.5.38v7.74c.2.2.39.35.58.44.2.08.39.13.6.13.3 0 .53-.09.67-.26.14-.18.21-.46.21-.86v-6.4c0-.43-.08-.75-.26-.96a.96.96 0 0 0-.77-.33zM16.86 23.9H20v-7.7l3.66-10.84h-3.2l-1.94 7.41h-.2l-2.04-7.41h-3.17l3.75 11.2zm11.06.34c1.27 0 2.27-.33 3-1A3.56 3.56 0 0 0 32 20.5v-7.06a3.3 3.3 0 0 0-1.1-2.56c-.75-.66-1.7-1-2.85-1-1.27 0-2.28.32-3.03.95a3.13 3.13 0 0 0-1.13 2.53v7.09c0 1.16.37 2.08 1.1 2.77a4.12 4.12 0 0 0 2.93 1.03zm-1.16-11a.93.93 0 0 1 .32-.72c.22-.18.5-.27.83-.27.37 0 .67.09.9.27a.9.9 0 0 1 .34.73v7.45c0 .36-.11.65-.34.86-.22.21-.52.31-.9.31-.36 0-.65-.1-.85-.3-.2-.21-.3-.5-.3-.87v-7.45zm9.45 10.86c.53 0 1.07-.15 1.62-.44.56-.3 1.1-.72 1.61-1.28v1.52h2.8V10.22h-2.8V20.6c-.26.3-.55.54-.86.74-.31.2-.57.29-.78.29-.26 0-.45-.08-.57-.22-.11-.15-.18-.38-.18-.7V10.22h-2.78v11.43c0 .82.16 1.43.48 1.83.33.41.82.62 1.46.62z"/></svg>
